<?xml version="1.0" encoding="UTF-8"?>
<svg version="1.1" xmlns="http://www.w3.org/2000/svg" width="512" height="512">
<path d="M0 0 C17.33917041 13.67186371 28.64908212 30.55005238 35.0625 51.6875 C35.26141846 52.33895996 35.46033691 52.99041992 35.6652832 53.66162109 C39.25468532 66.24223684 39.65203313 78.90026528 39.79101562 91.8984375 C39.93428532 98.55174238 40.40292639 103.23886914 43.3125 109.1875 C44.30108611 117.08728268 44.26816212 124.68227982 39.3125 131.1875 C34.32903064 137.30644339 28.74069422 140.71143526 21.3125 143.1875 C21.14234375 144.40824219 20.9721875 145.62898437 20.796875 146.88671875 C18.02813303 166.02223541 13.04353139 182.16258908 0.3125 197.1875 C-0.48414063 198.20070312 -0.48414063 198.20070312 -1.296875 199.234375 C-6.67874279 205.846384 -13.45979088 210.93540287 -20.97265625 214.9375 C-24.04406953 217.01323013 -24.04406953 217.01323013 -24.4921875 220.859375 C-24.54494684 222.21792797 -24.56764014 223.57793268 -24.5625 224.9375 C-24.583125 225.63488281 -24.60375 226.33226562 -24.625 227.05078125 C-24.67189655 228.76250527 -24.6832404 230.47513898 -24.6875 232.1875 C-23.81923584 232.45828369 -22.95097168 232.72906738 -22.05639648 233.00805664 C-18.80472395 234.14646015 -15.86525766 235.52240282 -12.78515625 237.05859375 C-5.46318699 240.48216246 2.04570928 242.42026115 9.875 244.25 C22.28201651 247.1750839 34.14737378 250.14602142 44.27734375 258.24609375 C46.34973345 259.47029068 46.34973345 259.47029068 48.84765625 258.4921875 C50.94827519 257.38029094 52.86683237 256.23254537 54.8125 254.875 C65.98268937 247.83327593 79.26120035 245.20390201 91.92724609 242.1105957 C94.96818765 241.36750106 98.00570549 240.61149054 101.04296875 239.85351562 C102.97898243 239.37425513 104.91517401 238.89571259 106.8515625 238.41796875 C108.21083359 238.0805793 108.21083359 238.0805793 109.5975647 237.7363739 C110.85565445 237.43023918 110.85565445 237.43023918 112.13916016 237.11791992 C112.87494293 236.93758713 113.61072571 236.75725433 114.36880493 236.57145691 C116.3125 236.1875 116.3125 236.1875 119.3125 236.1875 C119.3125 235.5275 119.3125 234.8675 119.3125 234.1875 C118.72891724 234.19638245 118.14533447 234.20526489 117.54406738 234.2144165 C111.44419191 234.30323525 105.34450156 234.36337693 99.24414062 234.40722656 C96.97062716 234.42728317 94.6971649 234.45453538 92.42382812 234.48925781 C89.14700651 234.53803712 85.87086975 234.56052897 82.59375 234.578125 C81.08077332 234.60909271 81.08077332 234.60909271 79.53723145 234.64068604 C72.62676834 234.64285996 66.99247695 233.60255521 61.79064941 228.77520752 C56.99618516 223.37110886 56.00034138 218.18563622 55.6015625 211.17578125 C55.52212654 209.95742081 55.52212654 209.95742081 55.44108582 208.71444702 C55.2648763 205.97675628 55.10097856 203.23847848 54.9375 200.5 C54.8152758 198.54203737 54.69245588 196.58411185 54.5690918 194.6262207 C54.29596982 190.26574493 54.02863243 185.90495384 53.76416016 181.54394531 C53.40496073 175.64858344 53.03009928 169.75436729 52.64915085 163.86038303 C52.27319033 158.041906 51.90315748 152.22307139 51.53714371 146.40396023 C51.31142836 142.81651181 51.08375166 139.22921894 50.85064697 135.64224243 C45.44010728 52.12829465 45.44010728 52.12829465 70.3203125 23.23046875 C75.50593911 17.9126595 81.22550782 14.50949471 87.91796875 11.36328125 C92.78181796 8.9749964 96.02879522 6.63160109 99.5 2.4375 C111.66993093 -11.37918726 130.05782587 -19.40873147 148.3125 -20.8125 C182.34183816 -22.26706274 208.65272427 -15.45527205 234.12109375 7.74609375 C252.82616727 25.62098371 265.51193964 51.57306547 266.6875 77.625 C266.61391178 80.93646994 266.48183632 81.93954325 264.5625 84.75 C262.29423922 86.19916661 260.99240256 87.02508166 258.3125 87.1875 C254.27661538 86.10470169 252.41816761 84.76770869 250.3125 81.1875 C249.74403815 78.39399808 249.30173488 75.69352649 248.9375 72.875 C245.78989282 52.0572039 237.37838076 34.87948299 222.3125 20.1875 C221.22001953 19.08148438 221.22001953 19.08148438 220.10546875 17.953125 C202.10163946 0.71754816 178.87507941 -4.49040997 154.73828125 -4.12890625 C138.51697278 -3.56169444 122.90370181 1.98594899 111.59375 14.015625 C110.14088317 15.72051975 108.71484448 17.44086736 107.3125 19.1875 C104.11290657 23.13993894 101.29340548 24.68461212 96.625 26.4375 C86.24750427 30.53488761 78.88176341 38.06398228 74.3125 48.1875 C70.93250608 56.72439894 68.89212848 65.37044777 67.5 74.4375 C67.3760083 75.20876221 67.2520166 75.98002441 67.12426758 76.7746582 C64.77448015 93.99892905 66.53499887 111.87323045 67.58984375 129.13671875 C67.72241731 131.37341203 67.85453403 133.61013242 67.98622131 135.84687805 C68.26089009 140.491811 68.53938657 145.13649159 68.82104492 149.78100586 C69.18088389 155.7160455 69.53343698 161.65148948 69.88346004 167.58711529 C70.155152 172.18813365 70.42939407 176.78899701 70.70453072 181.38981056 C70.83538067 183.57892769 70.96574306 185.76807401 71.09559441 187.9572506 C71.27740198 191.01160786 71.46233521 194.06575991 71.64819336 197.11987305 C71.70070251 198.00987 71.75321167 198.89986694 71.80731201 199.8168335 C71.65848083 209.15335089 71.65848083 209.15335089 74.3125 217.1875 C75.69410115 217.2802833 77.08038038 217.30497043 78.46508789 217.30102539 C79.78634422 217.30091209 79.78634422 217.30091209 81.1342926 217.30079651 C82.57022011 217.29305458 82.57022011 217.29305458 84.03515625 217.28515625 C85.01036728 217.2837413 85.98557831 217.28232635 86.99034119 217.28086853 C90.11859143 217.27525133 93.24677123 217.26269593 96.375 217.25 C98.49023334 217.24498722 100.60546781 217.24042393 102.72070312 217.23632812 C107.91799296 217.22527631 113.11524145 217.20852146 118.3125 217.1875 C117.3635083 216.51565674 116.4145166 215.84381348 115.43676758 215.15161133 C114.17262262 214.25351112 112.90854755 213.35531253 111.64453125 212.45703125 C111.02130981 212.01621216 110.39808838 211.57539307 109.75598145 211.12121582 C90.30789466 197.28254115 79.02238067 178.69215666 74.77978516 155.24316406 C74.02550777 149.77619362 74.1098575 144.26275317 74.07421875 138.75390625 C74.066147 137.5620018 74.05807526 136.37009735 74.04975891 135.14207458 C74.03596805 132.62817825 74.0252237 130.11426358 74.01733398 127.6003418 C74.0057858 125.03518165 73.98528975 122.47004605 73.95581055 119.9050293 C73.91312242 116.1878231 73.8969658 112.47132716 73.88671875 108.75390625 C73.86921066 107.61409805 73.85170258 106.47428986 73.83366394 105.29994202 C73.85520159 97.36426183 74.86063228 91.71555495 80.61328125 85.8359375 C83.82733694 83.87308439 86.88651049 82.86846274 90.5 81.8125 C100.37587018 78.72584036 107.78913664 74.07690128 115.3046875 66.921875 C118.85522373 63.85487483 121.56588364 62.89665231 126.25 62.875 C127.08402344 62.85824219 127.91804688 62.84148437 128.77734375 62.82421875 C135.02012567 63.71879305 138.73799043 68.47832574 142.875 72.8125 C163.64773291 93.92923306 190.36500444 105.55479492 219.65625 108.66796875 C220.73108643 108.78543457 220.73108643 108.78543457 221.82763672 108.90527344 C223.81277741 109.11201107 225.80091008 109.28941854 227.7890625 109.46484375 C232.89819414 110.51272552 236.07757664 112.88582403 239.625 116.625 C246.63919172 127.27618002 242.70095116 149.3413313 240.3125 161.1875 C236.92352386 176.15250515 229.59266698 188.89800753 219.3125 200.1875 C218.72726562 200.84234375 218.14203125 201.4971875 217.5390625 202.171875 C211.69149077 208.37634078 204.58288507 212.82526896 197.3125 217.1875 C212.1625 217.1875 227.0125 217.1875 242.3125 217.1875 C244.20145325 212.49184053 244.20145325 212.49184053 244.76060486 207.82348633 C244.80950363 206.9824234 244.8584024 206.14136047 244.90878296 205.27481079 C244.9529837 204.36556854 244.99718445 203.45632629 245.04272461 202.51953125 C245.09671921 201.55147552 245.15071381 200.5834198 245.2063446 199.58602905 C245.32240926 197.4882487 245.43462869 195.39025284 245.54343987 193.29208374 C245.71633888 189.97128375 245.90069519 186.65130008 246.08827209 183.33129883 C246.61940088 173.89329423 247.12945895 164.45418436 247.63256836 155.01464844 C247.9412714 149.23756331 248.26305805 143.46132314 248.59265327 137.68539429 C248.7154238 135.48485401 248.83299209 133.28401711 248.94526482 131.08291626 C249.10227829 128.00628929 249.27577215 124.93099487 249.45288086 121.85546875 C249.49505737 120.9462265 249.53723389 120.03698425 249.58068848 119.10018921 C249.87021498 114.39182467 250.25181546 111.00197935 253.3125 107.1875 C256.40423752 105.64163124 258.90679552 105.89390479 262.3125 106.1875 C264.5194397 107.73776245 264.5194397 107.73776245 266.3125 110.1875 C266.6451296 112.84703775 266.7383558 115.05206378 266.62646484 117.69580078 C266.6100765 118.44171038 266.59368816 119.18761997 266.57680321 119.95613289 C266.51439315 122.36822429 266.4180291 124.7769317 266.3125 127.1875 C266.28073921 127.9685183 266.24897842 128.74953659 266.21625519 129.55422211 C265.96968623 135.39154843 265.63620277 141.22260899 265.2890625 147.0546875 C265.18151703 148.90974588 265.07421203 150.76481822 264.96713257 152.61990356 C264.74345838 156.47401935 264.51608559 160.32789455 264.28613281 164.18164062 C263.9934934 169.09297777 263.71155824 174.00486399 263.43251991 178.91699028 C263.2142164 182.73506004 262.98958727 186.55273854 262.76316452 190.37033463 C262.65664538 192.18090859 262.55218824 193.99160522 262.44993973 195.80242538 C260.91648952 222.8051786 260.91648952 222.8051786 255.3125 229.1875 C250.62963155 232.72354353 247.21696662 234.31572284 241.38208008 234.30102539 C240.38126907 234.30094986 239.38045807 234.30087433 238.34931946 234.30079651 C237.27111435 234.29563522 236.19290924 234.29047394 235.08203125 234.28515625 C233.97647385 234.2837413 232.87091644 234.28232635 231.7318573 234.28086853 C228.19621083 234.27526514 224.66062738 234.26271204 221.125 234.25 C218.72981862 234.24498544 216.33463625 234.24042246 213.93945312 234.23632812 C208.06378053 234.22529461 202.18814477 234.20855316 196.3125 234.1875 C196.3125 234.8475 196.3125 235.5075 196.3125 236.1875 C196.89918457 236.28184326 197.48586914 236.37618652 198.09033203 236.47338867 C206.42852622 237.89643006 214.60667459 239.86298549 222.80908203 241.90893555 C225.17409393 242.49666844 227.54195846 243.07174344 229.91015625 243.64648438 C249.91121868 248.57501897 268.15860181 254.82445519 279.70703125 272.98828125 C284.26360591 282.0681709 286.16617499 290.97323422 287.34667969 301.01318359 C287.51036419 302.32039557 287.67404869 303.62760754 287.84269333 304.97443199 C288.26770058 308.37984552 288.67596921 311.78701122 289.07749748 315.19526577 C289.30335227 317.10995012 289.53265364 319.02422695 289.76210022 320.93848419 C290.80028669 329.61373376 291.7901558 338.29406325 292.765625 346.9765625 C292.91788063 348.32770777 293.07019218 349.67884675 293.22255707 351.02997971 C293.9367919 357.36633139 294.64837348 363.7029728 295.35612416 370.04005206 C296.16104654 377.24671052 296.97542473 384.45222039 297.79766583 391.65692294 C298.44255531 397.3129714 299.07876134 402.96995715 299.70871997 408.62768781 C300.08115403 411.97083738 300.45804231 415.3133153 300.84201813 418.65517044 C306.16751763 465.10517527 306.16751763 465.10517527 297.5625 477.4375 C291.30971867 485.03892044 284.27028528 490.36103707 274.22459602 491.55428886 C270.69335622 491.69832062 267.1827669 491.7167548 263.64868164 491.68920898 C262.30233192 491.69300017 260.95598612 491.69850676 259.60964966 491.70558167 C255.98395412 491.71944029 252.35873812 491.70843926 248.73306966 491.69187045 C244.92950081 491.67794335 241.12595763 491.68448794 237.32237244 491.68800354 C230.94489876 491.69069734 224.56761422 491.67729396 218.19018555 491.65405273 C210.81681911 491.62736814 203.4437671 491.6257242 196.07036883 491.6374411 C188.96576543 491.64821139 181.86127579 491.64204291 174.75668144 491.62788582 C171.7363866 491.6221275 168.71617504 491.62220724 165.69587898 491.62695122 C162.1457445 491.63171664 158.59595569 491.62163807 155.04588699 491.59999657 C153.12023318 491.59176508 151.19453413 491.59828436 149.26887512 491.60519409 C148.12646362 491.59528946 146.98405212 491.58538483 145.80702209 491.57518005 C144.81249055 491.57275016 143.817959 491.57032026 142.79329014 491.56781673 C140.3125 491.1875 140.3125 491.1875 138.52377987 489.8429575 C136.67306316 487.31358098 136.43675862 485.29396547 136.3125 482.1875 C137.56141577 479.13459478 138.48260775 477.63514543 141.40080261 476.06106567 C145.2108294 474.91798376 148.83629356 474.92442851 152.7746582 474.96044922 C153.6141954 474.96015717 154.4537326 474.95986511 155.31871033 474.95956421 C158.08367376 474.96095353 160.8483651 474.97649598 163.61328125 474.9921875 C165.53427483 474.99591904 167.45527031 474.99876535 169.37626648 475.00076294 C174.42494997 475.00838825 179.47351785 475.02802731 184.52215576 475.0501709 C189.67686397 475.07065305 194.83159092 475.07976973 199.98632812 475.08984375 C210.0951028 475.11127421 220.20379177 475.14539689 230.3125 475.1875 C230.24224106 474.29175514 230.24224106 474.29175514 230.17056274 473.37791443 C228.42702734 450.81914198 227.21444618 428.23399552 226.02539062 405.64038086 C225.74408875 400.30024332 225.45526516 394.96054073 225.1646328 389.62090397 C224.93773854 385.42978225 224.71596757 381.2384001 224.49553299 377.04693413 C224.39129 375.07973107 224.28530533 373.11261931 224.17734909 371.14561653 C223.83186109 364.82783337 223.54687577 358.51034207 223.3125 352.1875 C223.27187691 351.22371807 223.23125381 350.25993614 223.18939972 349.2669487 C223.07670559 346.3686838 223.0011803 343.47170437 222.93603516 340.57202148 C222.87896676 339.24611669 222.87896676 339.24611669 222.82074547 337.89342594 C222.74135766 331.8132947 222.74135766 331.8132947 225.6446228 328.63221741 C228.89638724 326.87131151 230.66790096 326.56714272 234.3125 327.1875 C237.16030619 329.41956431 238.16247666 330.73742999 239.3125 334.1875 C239.54607922 337.02505494 239.73242654 339.84537982 239.875 342.6875 C239.91818359 343.4403125 239.96136719 344.193125 240.00585938 344.96875 C240.32911777 351.04395546 240.35764744 357.10477766 240.3125 363.1875 C241.51410767 363.05118164 241.51410767 363.05118164 242.73999023 362.91210938 C246.40943571 362.49877015 250.07968907 362.09307941 253.75 361.6875 C255.01005859 361.54441406 256.27011719 361.40132813 257.56835938 361.25390625 C264.19518709 360.52720452 270.64617958 360.01340676 277.3125 360.1875 C277.07466797 358.44533203 277.07466797 358.44533203 276.83203125 356.66796875 C276.59558403 354.90374888 276.36000027 353.13941319 276.125 351.375 C275.92861938 349.90885254 275.92861938 349.90885254 275.72827148 348.41308594 C274.77101729 341.10826674 273.93204343 333.79701913 273.140625 326.47265625 C272.82399133 323.59071929 272.50646154 320.70888207 272.18881226 317.82705688 C271.9810672 315.91415787 271.77821626 314.00072046 271.58047485 312.08676147 C269.53810638 291.64101702 269.53810638 291.64101702 259.3125 274.1875 C251.66395339 268.01734659 242.81274264 264.43581728 233.3125 262.1875 C233.374375 263.38375 233.43625 264.58 233.5 265.8125 C233.45662005 279.62901434 229.08618618 294.27147964 219.43359375 304.34375 C213.44417616 309.55002091 206.75092793 311.53524952 198.921875 311.39453125 C184.4511554 310.24640529 172.80344594 302.76669118 161.7734375 293.91015625 C159.40354355 291.90076883 159.40354355 291.90076883 156.3125 292.1875 C154.53748189 293.45915477 152.81630793 294.80645959 151.125 296.1875 C141.72911191 303.53436286 130.40088998 310.17830592 118.3125 311.1875 C117.013125 311.31125 115.71375 311.435 114.375 311.5625 C107.51401548 311.32639325 100.60065655 308.8029171 95.5 304.1875 C85.41123111 292.8648529 82.05392301 276.9263887 82.3125 262.1875 C69.70262396 265.94221935 59.18698826 270.00486554 51.3125 281.1875 C47.53703164 288.46834742 46.30121944 295.93830699 45.3125 304 C45.07213013 305.83570557 45.07213013 305.83570557 44.8269043 307.70849609 C43.22906787 320.19474581 41.90094141 332.71535326 40.61914062 345.23754883 C40.53895187 346.01092087 40.45876312 346.78429291 40.37614441 347.58110046 C40.22564338 349.03612888 40.0779523 350.49145166 39.93354797 351.94709778 C39.63113507 354.86058135 39.24292316 357.39623053 38.3125 360.1875 C40.08947266 360.14109375 40.08947266 360.14109375 41.90234375 360.09375 C48.60612773 360.09375 55.22209868 360.93202988 61.875 361.6875 C63.16986328 361.83058594 64.46472656 361.97367187 65.79882812 362.12109375 C68.9705635 362.47220837 72.14173028 362.82778681 75.3125 363.1875 C75.34690186 362.27460205 75.38130371 361.3617041 75.41674805 360.42114258 C75.55631289 357.01857339 75.71716502 353.61837997 75.89233398 350.2175293 C75.96365786 348.74851624 76.02659398 347.27907004 76.08081055 345.80932617 C76.16046678 343.69018345 76.27068879 341.57445665 76.38671875 339.45703125 C76.44432373 338.18448486 76.50192871 336.91193848 76.5612793 335.60083008 C77.48836755 331.38840859 78.96855257 329.83850428 82.3125 327.1875 C86.27878159 326.36119134 87.76265775 326.84086032 91.1875 329 C93.45536997 332.40180495 93.57034627 333.16512921 93.48547363 337.05134583 C93.45623558 338.52456016 93.45623558 338.52456016 93.42640686 340.02753639 C93.22770801 345.53976927 92.97165761 351.04590177 92.66992188 356.5534668 C92.60164688 357.8425444 92.53337189 359.13162201 92.46302795 360.45976257 C92.27762064 363.95914247 92.08865296 367.45832169 91.89899635 370.95747352 C91.70070043 374.62752733 91.50574756 378.29775877 91.3104248 381.9679718 C90.94089606 388.9021785 90.56840464 395.83622266 90.19482183 402.77021199 C89.76929533 410.67103954 89.34711259 418.57204468 88.92519665 426.47306573 C88.05799177 442.71140954 87.1866335 458.94952766 86.3125 475.1875 C87.00811035 475.17178955 87.7037207 475.1560791 88.42041016 475.13989258 C91.59268971 475.07727137 94.76483885 475.03842323 97.9375 475 C99.57912109 474.96229492 99.57912109 474.96229492 101.25390625 474.92382812 C111.54892592 474.83023704 111.54892592 474.83023704 116.3125 478.1875 C117.85836876 481.27923752 117.60609521 483.78179552 117.3125 487.1875 C115.78403473 489.38231659 115.78403473 489.38231659 113.3125 491.1875 C110.55975029 491.58043176 108.20674325 491.72841551 105.45544434 491.69543457 C104.65855619 491.70167453 103.86166804 491.7079145 103.04063177 491.71434355 C100.3672827 491.73031327 97.6948404 491.71765407 95.02148438 491.70507812 C93.10622118 491.71049748 91.19096216 491.71761909 89.27571106 491.72631836 C84.0711962 491.74457675 78.86699799 491.73747376 73.66247749 491.72480202 C68.22041077 491.7146874 62.77837148 491.72406341 57.33630371 491.73034668 C48.19664636 491.73762757 39.05711821 491.72802377 29.91748047 491.70898438 C19.3450623 491.68721484 8.77295266 491.69426589 -1.79945803 491.71629 C-10.87046595 491.73443139 -19.9413809 491.73700848 -29.0124011 491.72653532 C-34.43286415 491.72029347 -39.85318209 491.71948379 -45.27363586 491.73268127 C-50.36922488 491.74422078 -55.46441543 491.73624874 -60.55996132 491.71310425 C-62.4320694 491.707807 -64.30421091 491.70934823 -66.17630577 491.71815491 C-68.72814077 491.72905407 -71.27869161 491.71541585 -73.83044434 491.69543457 C-74.57479941 491.70435746 -75.31915448 491.71328034 -76.08606577 491.72247362 C-79.48930675 491.67063182 -81.37495759 491.41785793 -84.14731598 489.37450409 C-86.40392404 486.17020448 -86.23340453 484.00883173 -85.6875 480.1875 C-83.46886971 477.28032927 -82.16805071 476.34768357 -78.6875 475.1875 C-75.90329939 475.09611151 -73.1446228 475.06150545 -70.3605957 475.07397461 C-69.51159698 475.07382858 -68.66259827 475.07368256 -67.78787231 475.0735321 C-64.97964937 475.07422917 -62.17149262 475.08201194 -59.36328125 475.08984375 C-57.41700781 475.09170866 -55.47073391 475.09313222 -53.52445984 475.09413147 C-48.40016383 475.09795088 -43.27589614 475.10777627 -38.15161133 475.11883545 C-32.92334374 475.12906194 -27.69507158 475.13363175 -22.46679688 475.13867188 C-12.20701881 475.14939903 -1.94726176 475.16646857 8.3125 475.1875 C8.25700312 474.14720013 8.25700312 474.14720013 8.20038509 473.08588409 C7.29967975 456.19281267 6.40681706 439.29934672 5.52262783 422.40540314 C5.09484861 414.23555561 4.6644386 406.06586271 4.2277832 397.89648438 C3.84709981 390.77415902 3.47140546 383.6515908 3.10164219 376.52868986 C2.90577304 372.75891746 2.70744709 368.98931134 2.5031414 365.21998596 C2.31069212 361.66794432 2.12494513 358.11561372 1.94420242 354.56295776 C1.8449785 352.64625343 1.73876838 350.7299147 1.63230896 348.81359863 C0.86170793 333.33682159 0.86170793 333.33682159 4 328.6875 C7.07405535 326.69351815 8.70714741 326.59887101 12.3125 327.1875 C15.4660934 329.18075112 17.06392095 330.27897872 18.0637207 333.93310547 C18.12132568 334.96322754 18.17893066 335.99334961 18.23828125 337.0546875 C18.31240234 338.18777344 18.38652344 339.32085937 18.46289062 340.48828125 C18.54313477 342.25751953 18.54313477 342.25751953 18.625 344.0625 C18.69783203 345.23425781 18.77066406 346.40601563 18.84570312 347.61328125 C19.1555102 352.81213895 19.34506036 357.97881404 19.3125 363.1875 C20.3025 363.1875 21.2925 363.1875 22.3125 363.1875 C22.35133301 362.3421167 22.39016602 361.4967334 22.43017578 360.62573242 C23.08816076 348.38324806 24.40512128 336.2301701 25.78662109 324.05053711 C26.18778623 320.49746488 26.57656371 316.94317241 26.96484375 313.38867188 C30.18659099 284.46295439 30.18659099 284.46295439 35.3125 275.1875 C35.3125 274.1975 35.3125 273.2075 35.3125 272.1875 C23.77514455 263.05376027 6.28723312 260.75713292 -7.6875 257.1875 C-7.9561084 257.7654834 -8.2247168 258.3434668 -8.50146484 258.93896484 C-9.71050751 261.2311186 -11.06596805 263.12660241 -12.6640625 265.1640625 C-13.24865234 265.91292725 -13.83324219 266.66179199 -14.43554688 267.43334961 C-15.05494141 268.21846924 -15.67433594 269.00358887 -16.3125 269.8125 C-16.94478516 270.61631104 -17.57707031 271.42012207 -18.22851562 272.24829102 C-19.48228009 273.84137558 -20.73713506 275.4336026 -21.99316406 277.02490234 C-23.40904197 278.83208484 -24.80239592 280.65169745 -26.1796875 282.48828125 C-32.38857919 290.64198143 -32.38857919 290.64198143 -37.6875 292.1875 C-44.15615864 292.90623985 -47.33814581 291.82506085 -52.6875 288.1875 C-53.3475 287.5275 -54.0075 286.8675 -54.6875 286.1875 C-54.6968457 287.28739258 -54.70619141 288.38728516 -54.71582031 289.52050781 C-54.75572937 293.60604166 -54.82149004 297.69082319 -54.89501953 301.77587891 C-54.92322397 303.54303311 -54.94444118 305.31031334 -54.95849609 307.07763672 C-54.97993358 309.62012222 -55.02658503 312.16109338 -55.078125 314.703125 C-55.07935364 315.49180969 -55.08058228 316.28049438 -55.08184814 317.09307861 C-55.17724496 320.67537994 -55.37140142 322.77252854 -57.57324219 325.66308594 C-60.07475154 327.46671462 -61.60629901 328.03719751 -64.6875 328.1875 C-67.46483794 327.4770182 -69.11657522 326.98644581 -70.80615234 324.62207031 C-72.08051516 321.10186368 -72.04582145 317.62216712 -72.1015625 313.921875 C-72.12092865 313.12847717 -72.1402948 312.33507935 -72.1602478 311.51763916 C-72.21988361 308.99103443 -72.26636443 306.46438375 -72.3125 303.9375 C-72.35069455 302.22133463 -72.38974715 300.50518813 -72.4296875 298.7890625 C-72.52557186 294.58869544 -72.60966167 290.38823866 -72.6875 286.1875 C-73.29980469 286.82171875 -73.91210938 287.4559375 -74.54296875 288.109375 C-77.84897341 291.31300793 -80.51090599 292.07855611 -85.0625 292.5 C-90.87145475 291.99922804 -94.43879167 290.51019249 -98.390625 286.32421875 C-99.25439989 285.18556854 -100.10282279 284.03514883 -100.9375 282.875 C-101.87842424 281.62203372 -102.81984605 280.36944097 -103.76171875 279.1171875 C-104.23915527 278.47233398 -104.7165918 277.82748047 -105.20849609 277.16308594 C-107.65785923 273.89133842 -110.20901897 270.70074007 -112.75 267.5 C-115.16200441 264.45239983 -117.52949941 261.42450088 -119.6875 258.1875 C-127.04595713 259.1870094 -134.16801944 261.02110374 -141.3125 263 C-142.19446045 263.23605957 -143.0764209 263.47211914 -143.98510742 263.71533203 C-155.03553705 266.84785095 -163.64443258 271.90959261 -170.2578125 281.3828125 C-175.37411828 291.41971838 -175.93644133 302.73137057 -177.1875 313.75 C-177.4023874 315.58465397 -177.61813139 317.41920781 -177.8347168 319.25366211 C-178.26195543 322.88214615 -178.68465462 326.5111082 -179.10302734 330.140625 C-179.87709407 336.84677857 -180.68894159 343.54822835 -181.5 350.25 C-181.89695674 353.56236625 -182.29254496 356.87489452 -182.6875 360.1875 C-181.60855469 360.23648437 -180.52960938 360.28546875 -179.41796875 360.3359375 C-168.12109818 360.88666312 -156.92356443 361.90444608 -145.6875 363.1875 C-145.66768066 362.40101074 -145.64786133 361.61452148 -145.62744141 360.80419922 C-145.53188767 357.22330958 -145.42233064 353.64297902 -145.3125 350.0625 C-145.2815625 348.825 -145.250625 347.5875 -145.21875 346.3125 C-145.16074219 344.51425781 -145.16074219 344.51425781 -145.1015625 342.6796875 C-145.0701416 341.57995605 -145.0387207 340.48022461 -145.00634766 339.34716797 C-144.59944641 335.31491998 -143.68001027 331.75462148 -141.5 328.3125 C-138.50376183 326.45276597 -136.11274311 326.76685611 -132.6875 327.1875 C-129.71471395 329.22151151 -128.84739585 330.45648895 -128.07726479 333.97737026 C-127.7038103 337.05316728 -127.66283217 339.83488633 -127.82626343 342.92457581 C-127.88234268 344.04468048 -127.93842194 345.16478516 -127.99620056 346.3188324 C-128.09741966 348.14016441 -128.09741966 348.14016441 -128.20068359 349.99829102 C-128.26720627 351.2883606 -128.33372894 352.57843018 -128.40226746 353.90759277 C-128.5843865 357.434657 -128.77468433 360.96123635 -128.96667814 364.48777509 C-129.16668518 368.18343253 -129.35980816 371.87945035 -129.55386353 375.57542419 C-129.88068874 381.78026533 -130.21264031 387.98481556 -130.54785156 394.18920898 C-130.93509923 401.35754815 -131.31516936 408.52623934 -131.69118822 415.69517571 C-132.05339847 422.59915252 -132.41979819 429.5029002 -132.78841019 436.40653801 C-132.94509139 439.34135736 -133.10047179 442.2762413 -133.25483322 445.21118355 C-133.47069554 449.30973301 -133.69276811 453.40792313 -133.91552734 457.50610352 C-133.97895828 458.72234909 -134.04238922 459.93859467 -134.10774231 461.19169617 C-134.16946121 462.30898102 -134.23118011 463.42626587 -134.29476929 464.57740784 C-134.34676672 465.5457937 -134.39876415 466.51417955 -134.45233727 467.51191044 C-134.6826164 470.13193634 -135.11984859 472.62133873 -135.6875 475.1875 C-135.0169458 475.17702637 -134.3463916 475.16655273 -133.65551758 475.15576172 C-130.60371684 475.11406829 -127.55197616 475.08813147 -124.5 475.0625 C-123.44490234 475.04574219 -122.38980469 475.02898437 -121.30273438 475.01171875 C-120.28115234 475.00527344 -119.25957031 474.99882812 -118.20703125 474.9921875 C-117.26964111 474.98171387 -116.33225098 474.97124023 -115.36645508 474.96044922 C-112.42621964 475.20964442 -110.32468868 475.87783136 -107.6875 477.1875 C-105.26792857 480.09098571 -104.66056037 481.51400931 -104.8125 485.3125 C-105.74832438 488.38735154 -106.11739701 489.34922253 -108.6875 491.1875 C-111.79029846 491.57518005 -111.79029846 491.57518005 -115.66235352 491.59155273 C-116.72156258 491.60184761 -116.72156258 491.60184761 -117.8021698 491.61235046 C-120.14045254 491.63067204 -122.47806697 491.62677029 -124.81640625 491.62109375 C-126.44726275 491.62565625 -128.07811733 491.63096203 -129.70896912 491.63697815 C-133.13296292 491.64592216 -136.55672372 491.6434754 -139.98071289 491.63354492 C-144.34625521 491.62211177 -148.71098182 491.64217217 -153.07641697 491.67146206 C-156.44902075 491.68991699 -159.82143296 491.68951224 -163.19407463 491.68382454 C-164.80186028 491.68367214 -166.40965961 491.68964833 -168.01739693 491.70211601 C-181.21571613 491.78996884 -190.62547833 490.07757172 -200.484375 480.69921875 C-210.31747445 469.488788 -209.32124591 456.19876378 -208.6875 442.1875 C-207.93563193 431.95616111 -206.72954488 421.76478414 -205.55542922 411.57494664 C-205.10828063 407.67387708 -204.67426562 403.77134183 -204.23835754 399.8690033 C-203.50601746 393.33024495 -202.76432408 386.79260351 -202.01635742 380.25561523 C-201.15653998 372.74042231 -200.30988144 365.22383899 -199.47059363 357.7063275 C-198.65572165 350.408847 -197.83335853 343.11223131 -197.00704384 335.81603813 C-196.6585693 332.7389314 -196.31229389 329.66158967 -195.96782494 326.58403206 C-195.56107657 322.95432952 -195.14759129 319.32545087 -194.72924614 315.69706726 C-194.50733914 313.75998336 -194.29158678 311.82219736 -194.07614136 309.88438416 C-191.66967635 289.20965772 -188.07224185 270.94840335 -170.9375 257.375 C-160.1054377 249.12715827 -146.65978068 246.40614051 -133.6862793 243.28613281 C-124.07407882 240.95707651 -115.40950499 238.00249139 -106.55981445 233.55615234 C-103.6875 232.1875 -103.6875 232.1875 -101.6875 232.1875 C-101.46354974 227.01029682 -101.53992055 222.26044468 -102.6875 217.1875 C-104.83878281 214.90805566 -106.82926497 213.98735934 -109.66796875 212.6796875 C-126.08127377 204.56858463 -137.37076254 187.01722759 -143.38720703 170.23583984 C-145.60599589 163.35812141 -146.71975709 156.81466119 -147.1875 149.625 C-147.477412 146.17334178 -147.477412 146.17334178 -148.6875 143.1875 C-151.54811908 141.02116327 -154.29831094 139.84256873 -157.6328125 138.53515625 C-163.46653951 135.96145316 -166.40391195 131.29920937 -169.625 126 C-171.43588719 119.50211066 -172.15544127 112.26979137 -169.19921875 106.0625 C-166.79332095 100.88452732 -167.20023543 95.29314339 -167.125 89.6875 C-166.24767399 56.99520457 -157.78571898 29.44090507 -134.21020508 6.17089844 C-97.67388512 -28.3996273 -39.82557821 -30.26020267 0 0 Z M-130.28710938 25.53710938 C-146.00282001 44.0584141 -151.02202971 66.47306087 -150.6875 90.1875 C-144.7465339 89.7577737 -139.89953361 89.18033585 -135.6875 84.6875 C-131.75355635 79.48605661 -130.30452209 73.88963252 -129.24609375 67.5390625 C-128.03625576 60.28003456 -126.21300368 56.83162776 -120.1875 52.3125 C-112.88925262 49.96663477 -105.24487444 50.93841206 -97.74134827 51.91375732 C-87.48262356 53.22808758 -77.33513949 53.49600985 -67.00170898 53.44824219 C-64.2554715 53.43752136 -61.50988979 53.44821333 -58.76367188 53.4609375 C-48.34099822 53.46821342 -38.1464205 52.90902993 -27.79980469 51.64672852 C-10.78886658 49.61147507 -10.78886658 49.61147507 -4.6875 54.1875 C-0.30273952 58.47260684 1.22184517 62.15033993 2.3125 68.1875 C3.65625164 75.47138741 5.29306902 80.90164864 10.4375 86.5 C14.51299919 88.89214083 18.67738713 89.50348334 23.3125 90.1875 C24.14601494 66.97256529 19.10435899 43.36607388 2.8125 25.8125 C0.9970534 23.91894026 -0.84349146 22.05355947 -2.6875 20.1875 C-3.27144531 19.53136719 -3.85539063 18.87523438 -4.45703125 18.19921875 C-17.39608627 3.94987968 -38.19847858 -4.20984414 -57.05078125 -5.12890625 C-86.25726471 -5.99802992 -110.50035965 3.63129677 -130.28710938 25.53710938 Z M-112.6875 66.1875 C-114.18121686 69.60345906 -114.97496182 72.62320739 -115.4375 76.3125 C-116.55516907 82.65164595 -118.79326264 88.04538548 -122.6875 93.1875 C-123.77442139 93.84999756 -123.77442139 93.84999756 -124.88330078 94.52587891 C-128.47132987 96.87514149 -131.17645024 98.98211671 -132.18435669 103.33163452 C-132.82355318 108.92416951 -132.70491501 114.52030146 -132.53125 120.13818359 C-132.43859533 123.15187336 -132.40839786 126.16081371 -132.390625 129.17578125 C-132.14544785 149.4925845 -129.64703072 168.75458154 -116.6875 185.1875 C-116.23890625 185.79980469 -115.7903125 186.41210938 -115.328125 187.04296875 C-105.57023611 199.58472594 -89.23588082 207.75618004 -73.6875 210.1875 C-53.78328654 212.03351376 -36.56633087 207.56518793 -20.4375 195.4375 C-6.03046819 183.24873079 2.77801497 166.16021316 4.58078003 147.39492798 C4.99403234 141.09297622 5.0987398 134.79906221 5.10864258 128.48486328 C5.12512022 125.16326622 5.2111667 121.8477338 5.29882812 118.52734375 C5.7981815 107.86223764 5.7981815 107.86223764 2.37011719 98.10791016 C0.1137978 96.16085817 -2.12523865 94.69279639 -4.6875 93.1875 C-9.69557574 86.19119944 -11.63609668 78.29073657 -13.14453125 69.92578125 C-13.40435184 67.28529167 -13.40435184 67.28529167 -14.6875 66.1875 C-16.83596552 66.25323886 -18.9823159 66.39182333 -21.125 66.5625 C-22.88650391 66.69785156 -22.88650391 66.69785156 -24.68359375 66.8359375 C-26.75759979 67.00815753 -28.82419343 67.20282332 -30.89247131 67.43467712 C-37.04887839 68.11799472 -43.12120123 68.34797971 -49.3125 68.35546875 C-50.29887451 68.35879715 -51.28524902 68.36212555 -52.30151367 68.36555481 C-54.37890156 68.37058676 -56.45629743 68.3729643 -58.53369141 68.37280273 C-61.65150913 68.37497493 -64.76896404 68.39313174 -67.88671875 68.41210938 C-77.91569008 68.4393295 -87.76989878 68.25038301 -97.71801758 66.88945007 C-102.76561763 66.20430733 -107.60552804 66.10894801 -112.6875 66.1875 Z M121.1875 83.6875 C116.78511831 87.28480173 112.31327207 89.98084093 107.25 92.5 C106.60208496 92.82484375 105.95416992 93.1496875 105.28662109 93.484375 C101.77861309 95.18074807 98.26547276 96.58556483 94.56079102 97.79760742 C93.761819 98.06014816 92.96284698 98.3226889 92.1396637 98.59318542 C91.53669968 98.78930923 90.93373566 98.98543304 90.3125 99.1875 C90.23570735 106.19426356 90.18359226 113.20091647 90.14770508 120.20800781 C90.13272599 122.58597875 90.11233563 124.96392259 90.08618164 127.34179688 C89.64308845 150.62394442 89.64308845 150.62394442 97 172.4375 C97.34812744 173.10587891 97.69625488 173.77425781 98.05493164 174.46289062 C107.33238277 191.73684955 121.43852375 202.2732127 139.796875 208.20703125 C158.01009897 213.28649705 176.40641683 210.04208523 192.953125 201.30078125 C208.92238412 191.25500313 220.11481192 175.17599871 224.8046875 156.98046875 C226.13068199 149.68749905 226.44963948 142.52579138 226.375 135.125 C226.36823242 133.8265918 226.36823242 133.8265918 226.36132812 132.50195312 C226.34969913 130.39710461 226.33177073 128.29229242 226.3125 126.1875 C223.78489595 124.92369797 221.38422939 124.84879624 218.60107422 124.59277344 C184.29219887 121.41483815 153.35941406 107.01320552 129.3125 82.125 C125.73095676 78.65537999 124.44556571 80.81598446 121.1875 83.6875 Z M-150.09765625 107.5078125 C-152.74034738 110.394156 -154.50536929 112.37619047 -155.375 116.25 C-154.4095397 120.37514856 -152.67852401 122.19647599 -149.6875 125.1875 C-149.0275 125.1875 -148.3675 125.1875 -147.6875 125.1875 C-147.6875 118.9175 -147.6875 112.6475 -147.6875 106.1875 C-148.8877999 106.07358831 -148.8877999 106.07358831 -150.09765625 107.5078125 Z M20.3125 106.1875 C20.3125 112.4575 20.3125 118.7275 20.3125 125.1875 C24.47359693 123.31719577 24.47359693 123.31719577 27.3125 120.1875 C27.84572082 115.46468699 28.00478239 113.30947491 25.5 109.25 C23.40439663 106.98439611 23.40439663 106.98439611 20.3125 106.1875 Z M-85.6875 223.1875 C-86.42791114 227.18518428 -86.72507533 230.19235012 -85.6875 234.1875 C-82.59768982 238.40064168 -78.31677071 241.59565576 -74.28173828 244.85986328 C-71.66783634 247.03664716 -69.37961504 249.504963 -67.0546875 251.98046875 C-65.58076248 253.44019625 -65.58076248 253.44019625 -62.6875 254.1875 C-61.9140625 253.40246094 -61.140625 252.61742187 -60.34375 251.80859375 C-54.63463308 246.04072406 -48.88608461 240.43506889 -42.6875 235.1875 C-41.40137324 234.12771067 -41.40137324 234.12771067 -41.58984375 231.68359375 C-41.60144531 230.67425781 -41.61304688 229.66492188 -41.625 228.625 C-41.63402344 227.61308594 -41.64304688 226.60117188 -41.65234375 225.55859375 C-41.66394531 224.77613281 -41.67554688 223.99367187 -41.6875 223.1875 C-42.27668213 223.32897461 -42.86586426 223.47044922 -43.47290039 223.61621094 C-50.09273828 225.08771705 -56.35727117 225.49182291 -63.125 225.4375 C-64.56456055 225.44910156 -64.56456055 225.44910156 -66.03320312 225.4609375 C-72.77361664 225.4427815 -79.10099953 224.59952476 -85.6875 223.1875 Z M135.3125 223.1875 C135.27511719 224.50105469 135.23773438 225.81460938 135.19921875 227.16796875 C135.13354343 228.90367364 135.06709663 230.63934947 135 232.375 C134.97744141 233.23931641 134.95488281 234.10363281 134.93164062 234.99414062 C134.72789576 239.8284507 134.447474 243.2687825 131.3125 247.1875 C127.32329158 250.26488935 123.14772219 251.12211206 118.3125 252.1875 C126.45419386 262.68599998 137.11993277 269.10342828 150.3125 271.1875 C168.31316545 272.26837137 181.37250578 267.61865867 195.2578125 256.17578125 C195.93585938 255.51964844 196.61390625 254.86351562 197.3125 254.1875 C197.3125 253.5275 197.3125 252.8675 197.3125 252.1875 C196.64863281 252.02894531 195.98476563 251.87039063 195.30078125 251.70703125 C189.69272389 250.2251942 185.99617278 248.94062617 182.3125 244.1875 C181.42610611 241.52831834 181.13260975 239.70685359 180.99609375 236.95703125 C180.95419922 236.15458984 180.91230469 235.35214844 180.86914062 234.52539062 C180.82982422 233.69201172 180.79050781 232.85863281 180.75 232 C180.70681641 231.15501953 180.66363281 230.31003906 180.61914062 229.43945312 C180.51318482 227.35565567 180.4123498 225.27159897 180.3125 223.1875 C179.6939917 223.3412207 179.0754834 223.49494141 178.43823242 223.65332031 C164.82826688 226.88345423 148.9033045 226.39882933 135.3125 223.1875 Z M-103.6875 250.1875 C-102.12197865 255.18180123 -99.13678356 258.70394329 -95.875 262.6875 C-95.35357422 263.33847656 -94.83214844 263.98945313 -94.29492188 264.66015625 C-91.27534131 268.39222212 -88.14854324 271.86080409 -84.6875 275.1875 C-81.7175 272.2175 -78.7475 269.2475 -75.6875 266.1875 C-84.30877593 255.74328787 -84.30877593 255.74328787 -94.6875 247.1875 C-98.38168201 247.1875 -100.46586178 248.46929295 -103.6875 250.1875 Z M-40.875 254.375 C-41.58591797 255.06142578 -42.29683594 255.74785156 -43.02929688 256.45507812 C-46.23745191 259.58476465 -48.98364404 262.58235873 -51.6875 266.1875 C-48.7175 269.1575 -45.7475 272.1275 -42.6875 275.1875 C-38.64520248 272.22074236 -35.65723893 268.87174962 -32.6875 264.875 C-32.03612061 264.01322144 -32.03612061 264.01322144 -31.37158203 263.1340332 C-28.40867459 259.19998143 -25.50558271 255.22675189 -22.6875 251.1875 C-30.35462837 244.40504029 -34.69419873 248.13723282 -40.875 254.375 Z M98.3125 257.1875 C97.87241578 268.23850383 98.4715268 281.83972502 105.66015625 290.8828125 C109.25903326 294.24176438 112.4742842 295.26681501 117.3125 295.1875 C125.04485936 293.26035813 131.67969594 289.50385839 138.3125 285.1875 C135.57749811 283.36416541 132.83045457 281.97781621 129.86694336 280.57421875 C118.97427131 275.3684486 106.9385211 268.4395422 101.3125 257.1875 C100.3225 257.1875 99.3325 257.1875 98.3125 257.1875 Z M214.3125 257.1875 C212.35836356 259.34616025 212.35836356 259.34616025 210.375 262.125 C201.38036893 273.38998007 190.44974699 279.00262206 177.3125 284.1875 C182.78461813 290.29560281 191.23947416 294.02887004 199.3125 295.25 C203.13887198 295.43887028 205.34179213 294.73382103 208.3125 292.1875 C214.81863031 285.87852516 217.15971675 275.55324785 217.41015625 266.7578125 C217.39855469 265.62085938 217.38695312 264.48390625 217.375 263.3125 C217.36597656 262.16007812 217.35695313 261.00765625 217.34765625 259.8203125 C217.33605469 258.95148438 217.32445312 258.08265625 217.3125 257.1875 C216.3225 257.1875 215.3325 257.1875 214.3125 257.1875 Z M-184.6875 376.1875 C-186.63111823 390.28268259 -188.36690947 404.40605603 -190.03091431 418.53674316 C-190.25715499 420.44402734 -190.48716926 422.35086835 -190.72128296 424.25720215 C-191.91417172 434.00032266 -192.92147607 443.7276021 -193.14453125 453.546875 C-193.17769943 454.3022052 -193.21086761 455.0575354 -193.24504089 455.83575439 C-193.2775579 461.72079673 -191.31736478 465.60465403 -187.6875 470.1875 C-182.95057325 474.58607484 -179.62751011 475.31392539 -173.26953125 475.28515625 C-172.1400708 475.28265869 -171.01061035 475.28016113 -169.84692383 475.27758789 C-168.39794901 475.26842429 -166.94897445 475.25922169 -165.5 475.25 C-163.036053 475.23850899 -160.57210429 475.22738307 -158.1081543 475.21655273 C-156.89628952 475.21106918 -155.68442474 475.20558563 -154.43583679 475.19993591 C-153.52888565 475.19583206 -152.62193451 475.19172821 -151.6875 475.1875 C-150.31508595 454.98709288 -149.14482946 434.78491182 -148.19995117 414.56005859 C-148.0305323 410.9388088 -147.85362027 407.31796137 -147.67519855 403.69714546 C-147.53698301 400.86990593 -147.40344406 398.04246032 -147.27129173 395.21493149 C-147.17746681 393.23095453 -147.07892688 391.24720234 -146.9803009 389.26345825 C-146.9266185 388.0822641 -146.8729361 386.90106995 -146.81762695 385.68408203 C-146.76814407 384.64285187 -146.71866119 383.6016217 -146.66767883 382.52883911 C-146.41355597 380.22774553 -146.41355597 380.22774553 -147.6875 379.1875 C-152.16555305 378.50211006 -156.68249153 378.09671682 -161.1875 377.625 C-162.44304687 377.48642578 -163.69859375 377.34785156 -164.9921875 377.20507812 C-171.59825727 376.50223108 -178.04473242 376.02143081 -184.6875 376.1875 Z M36.3125 376.1875 C35.25987299 385.07147313 34.21613996 393.95643549 33.18328857 402.84272957 C32.70326061 406.97037334 32.22034506 411.09763361 31.73046875 415.22412109 C31.25651623 419.2174322 30.79062105 423.21161319 30.32995605 427.20647812 C30.15415412 428.71917158 29.97560556 430.23154883 29.79406738 431.74356461 C26.86098223 451.63108254 26.86098223 451.63108254 33.125 469.9375 C36.47081154 473.37890615 39.76185813 475.0166755 44.5480957 475.54394531 C45.68335693 475.53459961 46.81861816 475.52525391 47.98828125 475.515625 C49.22771484 475.51046875 50.46714844 475.5053125 51.74414062 475.5 C53.66516602 475.4690625 53.66516602 475.4690625 55.625 475.4375 C56.92501953 475.43234375 58.22503906 475.4271875 59.56445312 475.421875 C65.31577577 475.93152671 65.31577577 475.93152671 70.3125 474.1875 C70.52724932 471.77536645 70.6798344 469.38588825 70.79321289 466.96826172 C70.8323732 466.21192444 70.87153351 465.45558716 70.91188049 464.67633057 C71.04103498 462.15683094 71.16324824 459.63704741 71.28515625 457.1171875 C71.37310189 455.36091604 71.46135811 453.60466011 71.5499115 451.84841919 C71.7352718 448.15120466 71.91729071 444.45384476 72.09692383 440.75634766 C72.32541671 436.05718862 72.56130421 431.3584384 72.79970646 426.65977287 C72.98354405 423.02208074 73.16366815 419.38421169 73.34271049 415.74628067 C73.42818265 414.01698796 73.51467748 412.28774544 73.60228157 410.55855942 C74.12993271 400.08973648 74.43083143 389.67074721 74.3125 379.1875 C70.34778482 378.75509983 66.38265101 378.32714787 62.41674805 377.90576172 C60.41484813 377.69175974 58.41347132 377.47288227 56.41210938 377.25390625 C55.13271484 377.11855469 53.85332031 376.98320312 52.53515625 376.84375 C51.36734619 376.71806641 50.19953613 376.59238281 48.99633789 376.46289062 C44.75666207 376.14594753 40.56112291 376.13033906 36.3125 376.1875 Z M255.25 377.6875 C253.89392635 377.83246351 252.53780676 377.97699803 251.18164062 378.12109375 C247.891452 378.47235944 244.60179055 378.82793805 241.3125 379.1875 C241.80476169 398.76646067 242.78830071 418.31780278 243.8125 437.875 C243.87821198 439.14423309 243.94392395 440.41346619 244.0116272 441.72116089 C244.20284267 445.40150223 244.39765201 449.08163464 244.59375 452.76171875 C244.67969673 454.41672394 244.67969673 454.41672394 244.76737976 456.10516357 C245.11334145 462.48838215 245.6102457 468.83337235 246.3125 475.1875 C250.85404478 475.27485463 255.39537232 475.32801247 259.9375 475.375 C261.86529297 475.41270508 261.86529297 475.41270508 263.83203125 475.45117188 C265.07597656 475.46083984 266.31992187 475.47050781 267.6015625 475.48046875 C268.74318848 475.4961792 269.88481445 475.51188965 271.06103516 475.52807617 C276.31971743 474.97725309 279.44220945 473.09734921 283.0625 469.3125 C293.20533253 455.22523259 286.05573939 430.91008666 284.12585449 414.62908936 C283.78902964 411.77033962 283.46067453 408.91064557 283.13269138 406.05086994 C282.45339604 400.12966468 281.76766377 394.20918769 281.06860352 388.2902832 C280.88540306 386.73504692 280.88540306 386.73504692 280.69850159 385.14839172 C280.3072093 382.14691677 279.82814909 379.16990897 279.3125 376.1875 C271.2067769 375.97395735 263.30207855 376.80649387 255.25 377.6875 Z " fill="#000000" transform="translate(208.6875,20.8125)"/>
</svg>
