<?xml version="1.0" encoding="UTF-8"?>
<svg version="1.1" xmlns="http://www.w3.org/2000/svg" width="512" height="512">
<path d="M0 0 C0.94140335 -0.01606293 1.8828067 -0.03212585 2.85273743 -0.04867554 C7.15279327 -0.09323261 11.45269693 -0.13418237 15.75292969 -0.15722656 C18.01963566 -0.17378964 20.28628934 -0.20108405 22.55273438 -0.23925781 C25.82473787 -0.29406524 29.09551903 -0.31590625 32.36791992 -0.33056641 C33.88226372 -0.36457047 33.88226372 -0.36457047 35.42720032 -0.39926147 C39.93628847 -0.38574627 43.31716462 -0.35597906 46.97216797 2.47558594 C50.84548924 6.90485397 50.49205433 11.00545438 50.46864319 16.69720459 C50.46992483 17.83551692 50.46992483 17.83551692 50.47123235 18.99682546 C50.47288018 21.54103912 50.46737718 24.08518693 50.46191406 26.62939453 C50.46163201 28.45262144 50.46179027 30.27584847 50.46235657 32.09907532 C50.46264385 37.05116978 50.45675818 42.0032401 50.44978261 46.95532894 C50.44353768 52.12966223 50.44294437 57.30399605 50.4417572 62.47833252 C50.43864726 72.27780281 50.43043839 82.07726196 50.42040771 91.87672734 C50.40923614 103.03259183 50.40373349 114.18845685 50.39871228 125.34432554 C50.38825551 148.2938469 50.37066256 171.24335838 50.34838867 194.19287109 C50.96101562 194.48403809 51.57364258 194.77520508 52.20483398 195.07519531 C56.8688326 197.50706156 60.52933176 201.62841798 64.34838867 205.19287109 C65.03416992 205.80130859 65.71995117 206.40974609 66.42651367 207.03662109 C82.77648388 222.19025202 93.29471991 246.67987686 94.48901367 268.79711914 C95.41696998 296.49893492 89.90857055 322.56521146 71.34838867 344.19287109 C70.6703418 345.00369141 69.99229492 345.81451172 69.29370117 346.64990234 C56.12869376 361.89975969 39.52214139 372.32933815 20.34838867 378.19287109 C19.23979492 378.53318359 18.13120117 378.87349609 16.98901367 379.22412109 C0.02478178 383.44563502 -20.91880434 383.3294537 -37.65161133 378.19287109 C-38.28389648 377.99951172 -38.91618164 377.80615234 -39.56762695 377.60693359 C-54.76083647 372.81374968 -67.79724877 364.80666082 -79.65161133 354.19287109 C-80.59907227 353.35175781 -80.59907227 353.35175781 -81.56567383 352.49365234 C-96.89188961 338.04222056 -106.88082682 317.77506987 -110.65161133 297.19287109 C-110.66579102 298.42263672 -110.6799707 299.65240234 -110.69458008 300.91943359 C-110.74150103 302.55228267 -110.7897483 304.18509402 -110.83911133 305.81787109 C-110.84491211 306.62611328 -110.85071289 307.43435547 -110.85668945 308.26708984 C-111.07614371 314.26550632 -112.30864339 317.01465914 -116.65161133 321.19287109 C-119.02806222 322.38109654 -120.53697604 322.3446484 -123.18969727 322.38574219 C-124.60191559 322.40983658 -124.60191559 322.40983658 -126.04266357 322.43441772 C-130.35533956 322.47887962 -134.66786122 322.51994198 -138.98071289 322.54296875 C-141.25425459 322.55951894 -143.52774445 322.58679634 -145.80102539 322.625 C-149.07962023 322.67981803 -152.35699466 322.70165202 -155.63598633 322.71630859 C-157.15503571 322.75031265 -157.15503571 322.75031265 -158.70477295 322.78500366 C-163.30142984 322.77127259 -166.60881716 322.7493782 -170.27758789 319.78515625 C-173.99105632 315.73028092 -173.79814978 312.85651925 -173.79205322 307.58305359 C-173.79502434 306.78857986 -173.79799547 305.99410613 -173.80105662 305.17555743 C-173.80976666 302.49861958 -173.81125381 299.82172632 -173.81274414 297.14477539 C-173.81737069 295.23143416 -173.82239513 293.31809386 -173.82778931 291.40475464 C-173.84093119 286.19602613 -173.84736177 280.98731053 -173.85179996 275.77856803 C-173.85472787 272.52648287 -173.85883214 269.27440126 -173.86330414 266.02231789 C-173.87698391 255.85350392 -173.88664816 245.68469805 -173.89050603 235.51587552 C-173.89498781 223.76601952 -173.91253931 212.0162798 -173.94150662 200.26645917 C-173.96310361 191.19210339 -173.97320925 182.11778037 -173.97454715 173.04339916 C-173.97559662 167.62008597 -173.98153456 162.19688201 -173.99936676 156.77359581 C-174.01581312 151.67237371 -174.01801967 146.57134334 -174.00922775 141.47010422 C-174.00845553 139.59679337 -174.01282442 137.72347235 -174.022686 135.8501873 C-174.03535215 133.29444149 -174.02955795 130.73938018 -174.019104 128.18363953 C-174.02716041 127.44083306 -174.03521681 126.69802658 -174.04351735 125.93271083 C-174.00117071 121.51169471 -173.3542768 118.71943958 -170.65161133 115.19287109 C-167.7512143 113.20775657 -165.35692492 112.93119222 -161.88647461 112.88647461 C-160.94514679 112.87048721 -160.00381897 112.85449982 -159.03396606 112.83802795 C-158.02349213 112.83266525 -157.01301819 112.82730255 -155.97192383 112.82177734 C-154.9264035 112.81274887 -153.88088318 112.8037204 -152.80368042 112.79441833 C-150.59302635 112.77991836 -148.38232939 112.77102973 -146.17163086 112.76733398 C-142.79573007 112.75543846 -139.42165766 112.70624914 -136.04614258 112.65576172 C-133.8964119 112.64629714 -131.74667001 112.63906227 -129.59692383 112.63427734 C-128.08728561 112.60497887 -128.08728561 112.60497887 -126.54714966 112.5750885 C-121.96736298 112.6044614 -118.68329671 112.65126457 -115.0300293 115.6027832 C-111.69114583 119.23881427 -111.52386451 120.87843757 -111.49339294 125.71035767 C-111.48360413 126.88267441 -111.47381531 128.05499115 -111.46372986 129.26283264 C-111.45509666 131.2016758 -111.45509666 131.2016758 -111.44628906 133.1796875 C-111.43671273 134.54942624 -111.42670279 135.91916201 -111.41629028 137.28889465 C-111.38920859 141.01384506 -111.36821674 144.73880819 -111.3482883 148.46380281 C-111.32644885 152.35425933 -111.29905019 156.24467651 -111.27223206 160.13510132 C-111.22227752 167.50507601 -111.17734895 174.8750725 -111.13420969 182.24508989 C-111.08486089 190.6343617 -111.02993403 199.02359406 -110.9745301 207.41282773 C-110.86066768 224.67280573 -110.75383794 241.93282034 -110.65161133 259.19287109 C-110.38271088 258.16398773 -110.11381042 257.13510437 -109.83676147 256.07504272 C-109.47747441 254.71113009 -109.11806229 253.34725039 -108.75854492 251.98339844 C-108.58209946 251.30691757 -108.40565399 250.63043671 -108.22386169 249.93345642 C-106.92794474 245.03157455 -105.38450528 240.42143195 -103.27661133 235.81787109 C-103.01106445 235.19783203 -102.74551758 234.57779297 -102.47192383 233.93896484 C-101.24938316 231.19390824 -100.0921638 228.72805667 -98.17103004 226.39425278 C-92.49520878 219.3963714 -92.82952814 212.22409971 -92.94213867 203.65478516 C-92.94051465 202.09508275 -92.93619396 200.53538119 -92.92939758 198.97569275 C-92.92041537 195.6328385 -92.93001919 192.29075175 -92.95429611 188.94797516 C-92.99227642 183.6613387 -92.98651212 178.37528886 -92.97476196 173.08856201 C-92.95795254 162.82663659 -92.98597916 152.56506824 -93.01818085 142.30319977 C-93.05672248 129.22663565 -93.07278571 116.15012859 -93.05297625 103.07352042 C-93.0464464 97.81860282 -93.06072789 92.56427462 -93.09142661 87.30944777 C-93.10678152 84.0434573 -93.10584969 80.77761477 -93.10068321 77.51159859 C-93.10174477 75.99786586 -93.10969645 74.48411985 -93.12505913 72.97046471 C-93.14515253 70.90312394 -93.14065705 68.83721589 -93.13021851 66.76983643 C-93.13432425 65.61361408 -93.13842999 64.45739174 -93.14266014 63.26613235 C-92.54563506 59.52961167 -91.26542958 57.87699454 -88.65161133 55.19287109 C-86.25262578 53.99337832 -84.70132709 54.04064048 -82.02172852 54 C-80.57947906 53.97590561 -80.57947906 53.97590561 -79.10809326 53.95132446 C-74.70382364 53.90687084 -70.29970524 53.86580076 -65.89526367 53.84277344 C-63.57322156 53.82622219 -61.25123021 53.79894343 -58.92944336 53.76074219 C-55.58135547 53.70593363 -52.23446264 53.68409153 -48.88598633 53.66943359 C-47.85141296 53.64676422 -46.8168396 53.62409485 -45.75091553 53.60073853 C-37.69457834 53.62430968 -37.69457834 53.62430968 -34.01196289 56.53808594 C-30.90191861 60.03608154 -30.52643597 62.4070681 -30.53135681 66.91947937 C-30.52929482 68.37710693 -30.52929482 68.37710693 -30.52719116 69.86418152 C-30.53078644 70.92873062 -30.53438171 71.99327972 -30.53808594 73.09008789 C-30.53793991 74.21218658 -30.53779388 75.33428528 -30.53764343 76.49038696 C-30.53834135 80.20764077 -30.54612815 83.92484477 -30.55395508 87.64208984 C-30.55581969 90.2161303 -30.55724339 92.7901711 -30.5582428 95.36421204 C-30.56167376 101.45212637 -30.56955914 107.54002009 -30.57959229 113.62792665 C-30.59076712 120.55893803 -30.59626733 127.48995027 -30.60128772 134.42096841 C-30.61174211 148.67827895 -30.62933303 162.93557438 -30.65161133 177.19287109 C-29.3309668 176.97630859 -29.3309668 176.97630859 -27.98364258 176.75537109 C-26.82219727 176.56974609 -25.66075195 176.38412109 -24.46411133 176.19287109 C-23.31555664 176.00724609 -22.16700195 175.82162109 -20.98364258 175.63037109 C-18.13964584 175.25695065 -15.50951573 175.15877231 -12.65161133 175.19287109 C-12.65345491 174.3419605 -12.6552985 173.4910499 -12.65719795 172.61435413 C-12.70135319 151.91651073 -12.73445632 131.21867544 -12.75523567 110.52079487 C-12.76555132 100.51148602 -12.77961718 90.5022086 -12.80249023 80.49291992 C-12.82241526 71.76954111 -12.83532567 63.04618506 -12.83978832 54.32278413 C-12.8423972 49.70317562 -12.84853523 45.08363222 -12.86307144 40.46404457 C-12.87664131 36.11635515 -12.88083516 31.7687577 -12.87782669 27.42104912 C-12.87837712 25.82509995 -12.88235812 24.22914772 -12.89002228 22.63321686 C-12.89997427 20.45408009 -12.89757939 18.27529045 -12.89212036 16.09614563 C-12.89396395 14.87661351 -12.89580753 13.65708139 -12.89770699 12.40059376 C-12.5935744 8.43639136 -11.74722666 5.52666367 -9.21411133 2.44287109 C-6.33573895 0.14017319 -3.53566918 0.05491859 0 0 Z M9.34838867 22.19287109 C9.34838867 73.34287109 9.34838867 124.49287109 9.34838867 177.19287109 C14.62838867 178.51287109 19.90838867 179.83287109 25.34838867 181.19287109 C26.33838867 181.52287109 27.32838867 181.85287109 28.34838867 182.19287109 C28.34838867 129.39287109 28.34838867 76.59287109 28.34838867 22.19287109 C22.07838867 22.19287109 15.80838867 22.19287109 9.34838867 22.19287109 Z M-71.65161133 75.19287109 C-71.65161133 115.12287109 -71.65161133 155.05287109 -71.65161133 196.19287109 C-61.95196472 191.81884474 -61.95196472 191.81884474 -52.03637218 183.10581684 C-52.04098115 182.29740439 -52.04559011 181.48899195 -52.05033875 180.65608215 C-52.04346542 179.72640121 -52.0365921 178.79672028 -52.0295105 177.83886719 C-52.04748688 176.82107178 -52.06546326 175.80327637 -52.08398438 174.75463867 C-52.08325424 173.68130783 -52.08252411 172.60797699 -52.08177185 171.50212097 C-52.08526132 167.94670453 -52.12418904 164.39259053 -52.16333008 160.83740234 C-52.17265331 158.37547013 -52.17977173 155.91352866 -52.18476868 153.45158386 C-52.20387674 146.96581495 -52.25301147 140.48060423 -52.30828857 133.99505615 C-52.35939832 127.37943066 -52.38226509 120.76371515 -52.4074707 114.14794922 C-52.46112561 101.16267767 -52.54648528 88.17782076 -52.65161133 75.19287109 C-58.92161133 75.19287109 -65.19161133 75.19287109 -71.65161133 75.19287109 Z M-151.65161133 135.19287109 C-151.65161133 189.64287109 -151.65161133 244.09287109 -151.65161133 300.19287109 C-145.71161133 300.19287109 -139.77161133 300.19287109 -133.65161133 300.19287109 C-133.65161133 245.74287109 -133.65161133 191.29287109 -133.65161133 135.19287109 C-139.59161133 135.19287109 -145.53161133 135.19287109 -151.65161133 135.19287109 Z M-69.45629883 223.58349609 C-85.65652676 242.83928303 -91.67398262 265.35110945 -89.65161133 290.19287109 C-87.82484042 305.33667506 -80.61579148 319.7732489 -70.65161133 331.19287109 C-69.87817383 332.16224609 -69.10473633 333.13162109 -68.30786133 334.13037109 C-55.95199957 348.93144654 -35.98001542 357.141132 -17.33911133 359.94287109 C-16.12223633 360.02537109 -14.90536133 360.10787109 -13.65161133 360.19287109 C-12.9580957 360.24443359 -12.26458008 360.29599609 -11.55004883 360.34912109 C1.45850516 360.87120353 14.60013898 357.57363112 26.34838867 352.19287109 C27.2687793 351.77392578 28.18916992 351.35498047 29.13745117 350.92333984 C49.08509711 340.94951688 62.55785175 323.21032059 69.62573242 302.43896484 C75.85384722 281.18358374 73.92879978 259.44527858 63.69873047 239.77392578 C59.34299527 231.87581669 53.74148496 225.50329803 47.34838867 219.19287109 C46.21916992 218.06558594 46.21916992 218.06558594 45.06713867 216.91552734 C28.74241834 201.50759385 7.82488269 196.60895528 -13.96411133 196.92333984 C-34.99328815 197.63293474 -55.03172979 208.59021645 -69.45629883 223.58349609 Z " fill="#000000" transform="translate(381.651611328125,130.80712890625)"/>
<path d="M0 0 C1.15881935 -0.0098568 1.15881935 -0.0098568 2.34104919 -0.01991272 C4.90339246 -0.03965944 7.46567708 -0.05131135 10.02807617 -0.0612793 C10.90260626 -0.06535482 11.77713634 -0.06943035 12.67816734 -0.07362938 C17.30692688 -0.09449601 21.93565671 -0.10879513 26.56445312 -0.11816406 C31.34631134 -0.12922965 36.12770435 -0.1636294 40.90939808 -0.20333576 C44.58543261 -0.22947729 48.26135589 -0.2378537 51.9374752 -0.24144554 C53.70013254 -0.24631791 55.4627847 -0.25795043 57.22535133 -0.27648354 C59.69357819 -0.30082315 62.16059621 -0.29991985 64.62890625 -0.29296875 C65.35584686 -0.30577881 66.08278748 -0.31858887 66.83175659 -0.33178711 C71.66490667 -0.28222316 74.11770496 0.74422046 77.50854492 4.17700195 C79.02220604 7.20432418 78.67336106 10.34652046 78.68554688 13.66845703 C78.69211807 14.44100327 78.69868927 15.2135495 78.70545959 16.00950623 C78.72520631 18.57184949 78.73685822 21.13413411 78.74682617 23.6965332 C78.7509017 24.57106329 78.75497723 25.44559338 78.75917625 26.34662437 C78.78004288 30.97538391 78.79434201 35.60411374 78.80371094 40.23291016 C78.81477653 45.01476837 78.84917627 49.79616138 78.88888264 54.57785511 C78.91502417 58.25388964 78.92340057 61.92981293 78.92699242 65.60593224 C78.93186479 67.36858957 78.9434973 69.13124173 78.96203041 70.89380836 C78.98637003 73.36203522 78.98546672 75.82905324 78.97851562 78.29736328 C78.99773071 79.3877742 78.99773071 79.3877742 79.01733398 80.50021362 C78.96770158 85.3400389 77.9406073 87.78014682 74.50854492 91.17700195 C71.44489708 92.9986304 69.59578718 93.17700195 66.00854492 93.17700195 C62.4068336 92.14794158 60.8395585 91.09125595 58.5453186 88.16204834 C56.41768073 84.08839182 56.78415605 79.58853253 56.80151367 75.09106445 C56.78639236 74.03414398 56.77127106 72.97722351 56.75569153 71.88827515 C56.71284324 68.52596656 56.70397888 65.16455628 56.69604492 61.80200195 C56.67289853 59.51682187 56.64753291 57.23166311 56.61987305 54.9465332 C56.55704914 49.3566809 56.52209217 43.76717923 56.50854492 38.17700195 C55.59413446 39.09417779 55.59413446 39.09417779 54.66125107 40.02988243 C39.83616165 54.89911712 25.00555654 69.76283047 10.16877365 84.62039757 C2.99398894 91.8055002 -4.17890868 98.99246803 -11.34741211 106.18383789 C-17.59459194 112.45093578 -23.84526502 118.71452458 -30.10017943 124.9739033 C-33.41277844 128.28911236 -36.72358702 131.60606649 -40.03022003 134.92722702 C-43.1415858 138.05215162 -46.25759538 141.17236831 -49.37725258 144.28901482 C-50.52224701 145.43456017 -51.66552421 146.58182487 -52.80695915 147.73091698 C-54.364307 149.29819936 -55.92768637 150.85920745 -57.49273682 152.41879272 C-58.80352644 153.73234773 -58.80352644 153.73234773 -60.14079666 155.07243919 C-63.58679036 158.15766414 -65.47729251 159.12454527 -70.11645508 159.36450195 C-78.8155792 157.94948731 -85.18519279 148.54254438 -90.72827148 142.35058594 C-98.29541084 133.96093144 -106.46471365 126.12258951 -114.49145508 118.17700195 C-117.4969172 119.52526941 -119.58161157 121.02023842 -121.90015888 123.35078335 C-122.55868455 124.00779372 -123.21721022 124.66480409 -123.89569122 125.34172386 C-124.96829933 126.42716322 -124.96829933 126.42716322 -126.06257629 127.53453064 C-126.82876288 128.30183064 -127.59494946 129.06913063 -128.38435382 129.85968214 C-130.95842668 132.43984189 -133.52527809 135.02706961 -136.09228516 137.61425781 C-137.93325232 139.46233522 -139.7746893 141.30994473 -141.61656189 143.15711975 C-145.58646918 147.13962477 -149.55291392 151.12555129 -153.51725197 155.11359978 C-159.25462953 160.88492984 -164.99942489 166.64883191 -170.74644908 172.41055436 C-180.07772477 181.76572586 -189.4059911 191.12389067 -198.73095703 200.48535156 C-199.28909443 201.04566921 -199.84723183 201.60598685 -200.42228248 202.18328381 C-208.34134343 210.13355975 -216.25740875 218.08681177 -224.17227068 226.04126776 C-224.7294985 226.60128221 -225.28672633 227.16129666 -225.86083984 227.73828125 C-226.4173863 228.29761476 -226.97393275 228.85694827 -227.54734425 229.43323129 C-236.83006803 238.76203811 -246.12051552 248.08310859 -255.41732138 257.39788157 C-261.15052683 263.14278881 -266.87712953 268.89412525 -272.59539666 274.65390242 C-276.97854694 279.0677311 -281.37202104 283.4711471 -285.76940346 287.8707943 C-287.57122862 289.67691748 -289.36960551 291.48648826 -291.16427231 293.29972458 C-293.61349773 295.77330785 -296.07474982 298.23427195 -298.53938293 300.69248962 C-299.24776285 301.41388514 -299.95614276 302.13528066 -300.68598872 302.87853664 C-304.72072566 306.87251866 -308.05668048 309.42962725 -313.49145508 311.17700195 C-318.3907145 311.07901676 -320.96174068 309.50501839 -324.49145508 306.17700195 C-326.14387309 302.87216594 -326.25020263 299.72256709 -325.49145508 296.17700195 C-324.201298 294.29650688 -324.201298 294.29650688 -322.47562027 292.43112183 C-321.83661805 291.73569149 -321.19761582 291.04026115 -320.5392499 290.32375717 C-317.14042441 286.76068226 -313.71599414 283.22883918 -310.24481201 279.73608398 C-309.04079266 278.51914116 -309.04079266 278.51914116 -307.81244969 277.27761364 C-305.13976945 274.577673 -302.4636295 271.88119056 -299.78735352 269.18481445 C-298.3536708 267.73826516 -296.9203406 266.29136719 -295.48703948 264.8444398 C-277.49914186 246.68635825 -259.46857297 228.57048214 -241.42963791 210.46311951 C-239.08639386 208.11082821 -236.74323132 205.75845575 -234.40014648 203.40600586 C-233.52668571 202.52906521 -233.52668571 202.52906521 -232.63557926 201.63440859 C-223.18885591 192.1488541 -213.76322337 182.64261231 -204.3455219 173.12825251 C-194.66455704 163.34875708 -184.96287682 153.59018705 -175.24122834 143.85113144 C-169.78781981 138.38682381 -164.34418705 132.91348105 -158.92412567 127.41607666 C-154.31244983 122.73860837 -149.6826185 118.08013045 -145.02792898 113.4454475 C-142.65459315 111.08113896 -140.29477698 108.70657558 -137.9514637 106.3122921 C-135.40768053 103.71604403 -132.83223313 101.15594689 -130.24603271 98.60205078 C-129.15148163 97.460461 -129.15148163 97.460461 -128.03481841 96.29580879 C-123.98593929 92.37647193 -121.34646429 90.7221025 -115.61381912 90.62408447 C-111.2774638 90.86463347 -108.85333914 91.46673442 -105.78051758 94.7043457 C-104.96615234 95.52660645 -104.15178711 96.34886719 -103.31274414 97.19604492 C-102.87047485 97.66596863 -102.42820557 98.13589233 -101.97253418 98.62005615 C-100.31563025 100.36183322 -98.61184974 102.0477177 -96.89672852 103.73217773 C-92.85689668 107.70531872 -88.86043501 111.72035187 -84.86645508 115.73950195 C-83.46695084 117.14403337 -82.06721295 118.54833201 -80.66723633 119.95239258 C-77.27261222 123.35792073 -73.88115602 126.76657377 -70.49145508 130.17700195 C-67.03801337 128.69591322 -64.84224182 126.74878496 -62.22583008 124.0715332 C-61.0134668 122.84273437 -61.0134668 122.84273437 -59.77661133 121.58911133 C-58.94000977 120.73124023 -58.1034082 119.87336914 -57.24145508 118.98950195 C-55.59293239 117.30604197 -53.94191872 115.62501739 -52.28833008 113.9465332 C-51.19536621 112.82661987 -51.19536621 112.82661987 -50.08032227 111.68408203 C-48.04627811 109.7142971 -45.99183023 107.86978367 -43.84539795 106.02896118 C-39.46241796 102.20450961 -35.34115675 98.1607304 -31.23950195 94.03857422 C-30.4580481 93.25726639 -29.67659424 92.47595856 -28.87145996 91.67097473 C-26.3153279 89.11415169 -23.76274605 86.55381589 -21.21020508 83.9934082 C-19.42823822 82.20957427 -17.64604897 80.42596249 -15.86364746 78.64256287 C-11.66880949 74.44431018 -7.47620194 70.24383888 -3.28469515 66.04226106 C1.49212024 61.25422075 6.2718171 56.46906123 11.05174351 51.68412697 C20.87385916 41.8515932 30.69239833 32.01549459 40.50854492 22.17700195 C39.91830032 22.17335632 39.32805573 22.16971069 38.71992493 22.16595459 C32.57134765 22.1241137 26.42351573 22.05475705 20.27539062 21.96948242 C17.98152118 21.94127313 15.68755454 21.92005843 13.39355469 21.90600586 C10.094139 21.88457644 6.7958919 21.83792412 3.49682617 21.78637695 C2.47269119 21.78514832 1.44855621 21.78391968 0.39338684 21.78265381 C-4.07179961 21.69099686 -6.74655605 21.63312673 -10.61572266 19.26391602 C-13.80105619 15.71995779 -13.82161089 13.05735346 -13.78442383 8.4387207 C-13.35489707 5.12277415 -11.88221154 3.42712568 -9.49145508 1.17700195 C-6.46413285 -0.33665916 -3.32193657 0.01218582 0 0 Z " fill="#000000" transform="translate(361.491455078125,-0.177001953125)"/>
<path d="M0 0 C0.98467255 -0.0159874 1.96934509 -0.03197479 2.9838562 -0.04844666 C4.04637604 -0.05380936 5.10889587 -0.05917206 6.20361328 -0.06469727 C7.84416183 -0.07823997 7.84416183 -0.07823997 9.51785278 -0.09205627 C11.8328375 -0.10657148 14.14786335 -0.11544865 16.46289062 -0.11914062 C20.0034708 -0.1310348 23.54230741 -0.18020882 27.08251953 -0.23071289 C29.33120894 -0.24017716 31.57990905 -0.24741217 33.82861328 -0.25219727 C34.88708466 -0.27172958 35.94555603 -0.2912619 37.03610229 -0.31138611 C44.40165078 -0.2662127 44.40165078 -0.2662127 48.29394531 2.71630859 C51.20961075 6.7874187 51.28037042 8.94725322 51.30282593 13.96038818 C51.30939931 14.99790722 51.30939931 14.99790722 51.31610548 16.05638623 C51.32951241 18.38549391 51.33567658 20.71456374 51.34179688 23.04370117 C51.34969638 24.70911837 51.35796523 26.37453385 51.36657715 28.03994751 C51.39281565 33.51937216 51.40810696 38.99880453 51.42236328 44.47827148 C51.42772228 46.36333471 51.43309978 48.24839788 51.43849564 50.133461 C51.46012736 57.9741436 51.47886448 65.81482412 51.49011803 73.65552902 C51.50635941 84.89815764 51.5395384 96.14044075 51.59651887 107.3829391 C51.63520297 115.28449409 51.65474892 123.1859566 51.66003859 131.08760381 C51.66369426 135.80850605 51.67573817 140.52903993 51.70814133 145.24983978 C51.73819497 149.69209437 51.74454358 154.13375723 51.73275757 158.57609177 C51.7325366 160.20550364 51.74086079 161.83494274 51.75841141 163.4642601 C51.78109659 165.69170863 51.77281415 167.91701018 51.75692749 170.14447021 C51.76023764 171.38998028 51.76354778 172.63549034 51.76695824 173.91874313 C50.94400694 178.42962878 49.35003558 180.0707888 46.14892578 183.30639648 C43.78345051 184.48913412 42.32549377 184.44543386 39.68676758 184.4675293 C38.76208176 184.47713684 37.83739594 184.48674438 36.88468933 184.49664307 C35.38159966 184.50301788 35.38159966 184.50301788 33.84814453 184.50952148 C32.81961868 184.51522156 31.79109283 184.52092163 30.73139954 184.52679443 C28.55165641 184.53625268 26.37189892 184.54278168 24.19213867 184.54663086 C20.86042227 184.55632665 17.52932518 184.58733864 14.19775391 184.61889648 C12.08122112 184.62542742 9.96468391 184.63067753 7.84814453 184.63452148 C6.35416389 184.65304169 6.35416389 184.65304169 4.83000183 184.67193604 C-4.0918601 184.64327296 -4.0918601 184.64327296 -7.85107422 181.30639648 C-10.83945378 177.24907756 -11.22745306 174.31569837 -11.23202515 169.32287598 C-11.23670512 168.63201133 -11.24138509 167.94114669 -11.24620688 167.22934675 C-11.25814622 164.92084872 -11.2487042 162.61294551 -11.23925781 160.30444336 C-11.243324 158.64681146 -11.24866614 156.98918228 -11.25518799 155.33155823 C-11.26886183 150.83366052 -11.26356267 146.33596931 -11.25405073 141.83806801 C-11.2464545 137.13052439 -11.25349965 132.42299842 -11.25820923 127.7154541 C-11.26366688 119.81002631 -11.2564749 111.9046826 -11.2421875 103.99926758 C-11.22586097 94.86004317 -11.23114947 85.72101953 -11.24766672 76.58179998 C-11.26128129 68.73453474 -11.26320138 60.88732994 -11.25535071 53.04005671 C-11.25067404 48.35344813 -11.25004918 43.66693393 -11.25996017 38.98033142 C-11.26862714 34.57422933 -11.2626129 30.16838607 -11.2452774 25.76231194 C-11.24131112 24.14540474 -11.24244905 22.52847575 -11.2490654 20.91157722 C-11.25726561 18.70406323 -11.24697866 16.49737819 -11.23202515 14.28991699 C-11.23089407 13.05475594 -11.22976299 11.81959488 -11.22859764 10.5470047 C-10.81411773 6.98916717 -10.00561831 5.14062805 -7.85107422 2.30639648 C-4.63046931 0.15932654 -3.71728501 0.04564465 0 0 Z M11.14892578 21.30639648 C11.14892578 68.16639648 11.14892578 115.02639648 11.14892578 163.30639648 C17.08892578 163.30639648 23.02892578 163.30639648 29.14892578 163.30639648 C29.14892578 116.44639648 29.14892578 69.58639648 29.14892578 21.30639648 C23.20892578 21.30639648 17.26892578 21.30639648 11.14892578 21.30639648 Z " fill="#000000" transform="translate(136.85107421875,267.693603515625)"/>
<path d="M0 0 C2.83927911 1.23446918 4.42948897 2.12838593 6.125 4.71875 C7.255784 7.66686542 7.19343468 10.10200471 7.125 13.25 C7.10695313 14.32765625 7.08890625 15.4053125 7.0703125 16.515625 C7.04710937 17.33546875 7.02390625 18.1553125 7 19 C7.825 19.185625 8.65 19.37125 9.5 19.5625 C18.2780417 23.16776713 23.62382617 30.41599149 27.25 38.9375 C29.02669198 46.19232557 29.85720504 51.34964648 26 58 C23.27952419 60.72047581 20.84839309 61.82100497 17 62 C12.33759261 60.47265965 9.57506546 59.17716584 7 55 C6.2265625 52.34375 6.2265625 52.34375 5.625 49.5 C4.70216925 45.93235535 4.18296122 44.21345476 1.75 41.375 C-1.66732354 39.66633823 -4.17035028 39.06718684 -8 39 C-12.07983427 40.49070868 -15.1081924 42.00618395 -17 46 C-17.54529242 50.6912459 -17.72901243 54.97656173 -15 59 C-11.06835985 62.05474783 -6.99175938 62.72182869 -2.1875 63.4375 C7.93729435 65.16060165 16.12145804 68.54690216 22.4765625 76.953125 C28.45887268 86.11900376 29.06148104 95.3321156 28 106 C27.166389 109.42917252 25.92660009 112.05908397 24 115 C23.57589844 115.69351563 23.15179688 116.38703125 22.71484375 117.1015625 C19.13890171 122.42065177 14.66043052 126.01129269 9 129 C8.34 129 7.68 129 7 129 C7.04640625 129.58007812 7.0928125 130.16015625 7.140625 130.7578125 C7.33180743 134.89554645 7.18191917 137.5831019 5.5 141.4375 C2.26398045 144.75442004 -0.3772239 145.87063127 -5 146 C-9.35875164 144.85672088 -11.33308127 143.94659432 -13.9375 140.25 C-15.11315969 136.65386448 -15.22559702 133.75995039 -15 130 C-15.73347656 129.88914062 -16.46695312 129.77828125 -17.22265625 129.6640625 C-24.55741181 127.91032348 -30.89455153 122.18320592 -35 116 C-38.80356564 108.80735985 -40.83252602 102.17920302 -40 94 C-38.37599816 90.36532921 -37.33886956 89.22591304 -34 87 C-31.9140625 86.6640625 -31.9140625 86.6640625 -29.625 86.625 C-28.87476563 86.59664063 -28.12453125 86.56828125 -27.3515625 86.5390625 C-23.97043674 87.20180808 -22.40069783 88.55112763 -20 91 C-18.74586064 94.26736307 -17.99880992 97.5049892 -17.1875 100.90625 C-15.55521929 105.15877079 -13.00097043 106.99951479 -9 109 C-3.72274989 109.59968751 -1.11292798 108.27164725 3 105 C5.00555847 101.9916623 5.33663294 101.12291351 5.4375 97.6875 C5.47746094 96.94886719 5.51742187 96.21023438 5.55859375 95.44921875 C4.72661897 91.80132931 2.8656454 89.30805429 0 87 C-2.73257578 86.19871838 -4.91248998 85.73723519 -7.6875 85.4375 C-17.15463279 84.03823578 -25.15956268 80.9959018 -32 74 C-38.55926483 64.88640607 -41.22372117 56.22764174 -40 45 C-37.57148515 34.87198921 -32.517264 27.20178835 -24.03515625 21.1875 C-21.08342701 19.46518582 -18.33711616 18.69523253 -15 18 C-15.05220703 17.12988281 -15.05220703 17.12988281 -15.10546875 16.2421875 C-15.31963744 10.06189112 -14.59670221 5.88522467 -10.3125 1.125 C-6.90482306 -0.53278878 -3.67536916 -0.54071037 0 0 Z " fill="#000000" transform="translate(379,337)"/>
<path d="M0 0 C0.96457626 -0.01268417 1.92915253 -0.02536835 2.92295837 -0.03843689 C4.47618553 -0.03403343 4.47618553 -0.03403343 6.06079102 -0.02954102 C7.13087906 -0.03478287 8.2009671 -0.04002472 9.30348206 -0.04542542 C11.56543104 -0.05184581 13.82741341 -0.05050841 16.08935547 -0.04199219 C19.54853862 -0.033487 23.00606808 -0.06223743 26.46508789 -0.09399414 C28.6636551 -0.09560637 30.86222524 -0.09502821 33.06079102 -0.09204102 C34.09425156 -0.10327499 35.1277121 -0.11450897 36.19248962 -0.12608337 C43.37110065 -0.05649546 43.37110065 -0.05649546 47.25634766 2.31005859 C50.61899469 6.07378346 50.29303326 9.34091522 50.32006836 14.17089844 C50.33233459 15.37360886 50.33233459 15.37360886 50.34484863 16.60061646 C50.36970935 19.260348 50.38622013 21.92002615 50.40063477 24.57983398 C50.40595844 25.48746176 50.41128212 26.39508953 50.41676712 27.33022118 C50.44350136 32.1340386 50.46287557 36.93783002 50.47729492 41.74169922 C50.4939457 46.70525488 50.53872606 51.66814693 50.58966637 56.63145161 C50.62331066 60.44645456 50.63486923 64.26129944 50.640522 68.076437 C50.64724205 69.90610006 50.66248369 71.73575245 50.68641281 73.56527138 C50.71800851 76.12707332 50.71811011 78.68707807 50.71069336 81.24902344 C50.72709869 82.00401627 50.74350403 82.75900909 50.76040649 83.53688049 C50.71310278 87.53089421 50.27957721 89.21782076 47.71572876 92.35124207 C44.37208865 95.00288456 42.8354862 95.53026421 38.66503906 95.56518555 C37.74035324 95.57479309 36.81566742 95.58440063 35.86296082 95.59429932 C34.35987114 95.60067413 34.35987114 95.60067413 32.82641602 95.60717773 C31.79789017 95.61287781 30.76936432 95.61857788 29.70967102 95.62445068 C27.52992789 95.63390893 25.35017041 95.64043793 23.17041016 95.64428711 C19.83869375 95.6539829 16.50759666 95.68499489 13.17602539 95.71655273 C11.0594926 95.72308367 8.94295539 95.72833378 6.82641602 95.73217773 C5.33243538 95.75069794 5.33243538 95.75069794 3.80827332 95.76959229 C-5.11358862 95.74092921 -5.11358862 95.74092921 -8.87280273 92.40405273 C-11.9893062 88.26359726 -12.3037612 84.68518418 -12.26098633 79.66381836 C-12.26624329 78.90058762 -12.27150024 78.13735687 -12.2769165 77.35099792 C-12.29008119 74.83722245 -12.28139121 72.32408425 -12.27124023 69.81030273 C-12.27326199 68.05822631 -12.27617428 66.3061507 -12.27993774 64.55407715 C-12.2843563 60.88566053 -12.27794516 57.21746334 -12.26391602 53.54907227 C-12.24682435 48.85140769 -12.25666805 44.15425735 -12.27463341 39.45661163 C-12.28548392 35.83974344 -12.28201909 32.22299677 -12.27425003 28.60612488 C-12.27225153 26.87420083 -12.27469501 25.14226569 -12.28168869 23.41035461 C-12.28932413 20.98803562 -12.27767028 18.56654458 -12.26098633 16.14428711 C-12.26705902 15.43141037 -12.27313171 14.71853363 -12.27938843 13.98405457 C-12.22367003 9.60820323 -11.58123832 6.86267359 -8.87280273 3.40405273 C-5.95160063 0.63132414 -3.99047196 0.02546963 0 0 Z M10.12719727 21.40405273 C10.12719727 38.89405273 10.12719727 56.38405273 10.12719727 74.40405273 C16.39719727 74.40405273 22.66719727 74.40405273 29.12719727 74.40405273 C29.12719727 56.91405273 29.12719727 39.42405273 29.12719727 21.40405273 C22.85719727 21.40405273 16.58719727 21.40405273 10.12719727 21.40405273 Z " fill="#000000" transform="translate(55.872802734375,356.595947265625)"/>
</svg>
