<?xml version="1.0" encoding="UTF-8"?>
<svg version="1.1" xmlns="http://www.w3.org/2000/svg" width="512" height="512">
<path d="M0 0 C1.01790619 0.00215515 2.03581238 0.0043103 3.08456421 0.00653076 C17.69363523 0.05620146 32.02575853 0.30709809 46.375 3.3125 C47.34985352 3.51117676 48.32470703 3.70985352 49.32910156 3.91455078 C97.7109774 14.03517194 141.69928269 35.9516877 177.375 70.3125 C178.3640332 71.26068604 178.3640332 71.26068604 179.37304688 72.22802734 C188.86130305 81.37247479 197.6012044 90.66984009 205.375 101.3125 C206.23306152 102.46355017 207.09113451 103.61459177 207.94921875 104.765625 C213.98736829 112.95680614 219.34595521 121.47054105 224.375 130.3125 C224.73948242 130.94430176 225.10396484 131.57610352 225.47949219 132.22705078 C247.08534998 169.97532572 256.85198095 212.74189997 256.6875 255.9375 C256.68534485 256.95540619 256.6831897 257.97331238 256.68096924 259.02206421 C256.63129854 273.63113523 256.38040191 287.96325853 253.375 302.3125 C253.07698486 303.77478027 253.07698486 303.77478027 252.77294922 305.26660156 C240.31286762 364.83232498 208.4226363 421.18616419 159.375 458.3125 C158.83617187 458.72773926 158.29734375 459.14297852 157.7421875 459.57080078 C125.87232453 484.07165115 89.31918759 500.56392134 49.9375 508.625 C49.21860596 508.77235596 48.49971191 508.91971191 47.7590332 509.0715332 C33.08339502 511.86090125 18.55831162 512.66142619 3.64770508 512.62817383 C0.70811513 512.6250221 -2.2304558 512.64854926 -5.16992188 512.67382812 C-18.54306192 512.71848737 -31.43916711 511.51301542 -44.625 509.3125 C-46.33055054 509.03031616 -46.33055054 509.03031616 -48.07055664 508.74243164 C-91.33802759 500.97044532 -132.38793216 480.98345309 -165.625 452.3125 C-166.37007813 451.67828125 -167.11515625 451.0440625 -167.8828125 450.390625 C-181.38779833 438.57948485 -194.05918743 425.82889772 -204.625 411.3125 C-205.48149066 410.16255169 -206.33826433 409.01281411 -207.1953125 407.86328125 C-213.23534209 399.67315742 -218.61867614 391.16870382 -223.625 382.3125 C-224.0271875 381.60528809 -224.429375 380.89807617 -224.84375 380.16943359 C-237.8691741 357.03404164 -246.61801461 331.86287591 -251.9375 305.875 C-252.08485596 305.15610596 -252.23221191 304.43721191 -252.3840332 303.6965332 C-255.35789088 288.05024391 -255.99800362 272.57681954 -255.9375 256.6875 C-255.93534485 255.66959381 -255.9331897 254.65168762 -255.93096924 253.60293579 C-255.88129854 238.99386477 -255.63040191 224.66174147 -252.625 210.3125 C-252.42632324 209.33764648 -252.22764648 208.36279297 -252.02294922 207.35839844 C-241.90232806 158.9765226 -219.9858123 114.98821731 -185.625 79.3125 C-184.99287598 78.65314453 -184.36075195 77.99378906 -183.70947266 77.31445312 C-174.56502521 67.82619695 -165.26765991 59.0862956 -154.625 51.3125 C-153.47394983 50.45443848 -152.32290823 49.59636549 -151.171875 48.73828125 C-142.98224019 42.70072604 -134.47961724 37.31792698 -125.625 32.3125 C-124.91778809 31.9103125 -124.21057617 31.508125 -123.48193359 31.09375 C-100.34654164 18.0683259 -75.17537591 9.31948539 -49.1875 4 C-48.46860596 3.85264404 -47.74971191 3.70528809 -47.0090332 3.5534668 C-31.36274391 0.57960912 -15.88931954 -0.06050362 0 0 Z M-58.625 100.3125 C-59.2746875 100.81910156 -59.924375 101.32570313 -60.59375 101.84765625 C-77.41413514 115.43078473 -86.95133406 136.4180354 -90.625 157.3125 C-92.53056688 185.2257694 -86.61630263 209.48129126 -68.24609375 230.921875 C-52.90378377 248.18731575 -31.22290832 259.93009005 -8.00585938 261.48828125 C17.98971972 262.74237535 40.61289143 256.36651087 60.5625 238.9375 C78.34028308 222.26905058 90.54459691 201.43186655 91.69140625 176.6953125 C92.46289927 149.16554013 84.09684701 125.14162951 64.98974609 104.93164062 C31.81127058 71.6628699 -23.15111105 69.83592477 -58.625 100.3125 Z M-106.6875 278.125 C-107.29891846 278.6627002 -107.91033691 279.20040039 -108.5402832 279.75439453 C-110.24514612 281.26309455 -111.93715778 282.78481406 -113.625 284.3125 C-114.30820313 284.92222656 -114.99140625 285.53195312 -115.6953125 286.16015625 C-136.70884083 306.00626634 -156.47191052 338.90604409 -158.9375 368 C-158.6587405 378.65259505 -152.38663613 385.49173714 -145.21533203 392.69873047 C-143.61170749 394.3259884 -142.05253544 395.98781446 -140.49609375 397.66015625 C-105.87256579 434.29589405 -55.5217392 454.09478568 -5.67578125 456.2265625 C39.98407607 457.51275566 86.48235492 442.73987041 122.375 414.3125 C123.20773437 413.68472656 124.04046875 413.05695313 124.8984375 412.41015625 C131.41929892 407.34394853 137.30140976 401.65623182 143.1875 395.875 C144.00033447 395.08818848 144.81316895 394.30137695 145.65063477 393.49072266 C152.77115926 386.39147975 158.97656115 378.9863507 159.59375 368.6484375 C159.52244805 363.82441482 158.30720623 359.51784914 156.875 354.9375 C156.60800293 354.07044434 156.34100586 353.20338867 156.06591797 352.31005859 C146.08624377 320.96898013 124.94751936 285.76260631 95.375 269.3125 C88.76417551 267.10889184 81.59299775 267.30520543 75.3125 270.375 C71.83948664 272.33201546 68.52376 274.50761331 65.1875 276.6875 C55.96822413 282.63541992 46.23943849 286.97650006 35.75 290.125 C35.10659668 290.31980957 34.46319336 290.51461914 33.80029297 290.71533203 C22.90384103 293.78952367 11.90586497 294.67984516 0.625 294.625 C-0.6007373 294.61936035 -1.82647461 294.6137207 -3.08935547 294.60791016 C-28.3984376 294.2705448 -51.08341242 286.29109782 -72.09667969 272.24487305 C-76.64192298 269.20915703 -79.8692666 268.13242181 -85.3125 268 C-86.30636719 267.96261719 -87.30023438 267.92523438 -88.32421875 267.88671875 C-95.76831212 268.84696275 -101.23112254 273.25359037 -106.6875 278.125 Z " fill="#000000" transform="translate(255.625,-0.3125)"/>
</svg>
